<svg id="Large_logo" data-name="Large logo" xmlns="http://www.w3.org/2000/svg" xmlns:xlink="http://www.w3.org/1999/xlink" width="302" height="84" viewBox="0 0 156.189 30.724">
  <defs>
    <style>
      .cls-1 {
        fill: none;
      }

      .cls-2 {
        clip-path: url(#clip-path);
      }

      .cls-3 {
        fill: #424242;
      }
    </style>
    <clipPath id="clip-path">
      <rect id="Rectangle_4" data-name="Rectangle 4" class="cls-1" width="302" height="84"/>
    </clipPath>
  </defs>
  <g id="Nolikuma_Pielikums_Nr_9" class="cls-2">
    <g id="Group_2" data-name="Group 2" class="cls-2">
      <path id="Path_2" data-name="Path 2" class="cls-3" d="M702.1,416.17h4.794l.914,2.212h2.507L705.7,408.058h-2.36l-4.6,10.325h2.444Zm2.4-5.772,1.637,3.953h-3.275Zm37.7,13.959h-2.389v10.325H742.2Zm-13.737,8.415h-5.618v-2.4h4.794v-1.864h-4.794v-2.237h5.428v-1.918h-7.8V434.68h7.994Zm-12.8-16.121a6.072,6.072,0,0,1-3.408-1.077l-.812,1.8a7.354,7.354,0,0,0,4.2,1.2c2.95,0,4.381-1.475,4.381-3.2,0-3.791-6.008-2.486-6.008-4.381,0-.648.545-1.181,1.962-1.181a5.834,5.834,0,0,1,2.861.812l.737-1.815A6.906,6.906,0,0,0,716,407.89c-2.935,0-4.35,1.45-4.35,3.215,0,3.835,6.008,2.507,6.008,4.439,0,.634-.576,1.106-1.991,1.106m-46.611,7.715h-2.382V434.69h7v-1.947h-4.609v-8.386Zm8.421,2.921c0-.648.545-1.181,1.962-1.181a5.832,5.832,0,0,1,2.861.812l.737-1.815a6.906,6.906,0,0,0-3.584-.914c-2.935,0-4.35,1.45-4.35,3.215,0,3.835,6.008,2.507,6.008,4.439,0,.634-.576,1.106-1.991,1.106a6.072,6.072,0,0,1-3.408-1.077l-.812,1.8a7.353,7.353,0,0,0,4.2,1.2c2.95,0,4.381-1.475,4.381-3.2,0-3.791-6.008-2.486-6.008-4.381m36.806-1.063a3.315,3.315,0,0,1,2.6,1.21l1.535-1.415a5.347,5.347,0,1,0,.006,7l-1.535-1.415a3.29,3.29,0,0,1-2.6,1.224,3.3,3.3,0,1,1,0-6.608m23.424,6.519h-4.23v-8.386h-2.389v10.325h6.619v-1.947Zm-3.045,3.025a.9.9,0,0,0-1.017.885.768.768,0,0,0,.547.781l-.369,1.181H734.9l.516-1a1.961,1.961,0,0,0,.265-.959.9.9,0,0,0-1.017-.885m-37.243-8.481c0-.648.545-1.181,1.962-1.181a5.83,5.83,0,0,1,2.861.812l.737-1.815a6.906,6.906,0,0,0-3.584-.914c-2.935,0-4.35,1.45-4.35,3.215,0,3.835,6.008,2.507,6.008,4.439,0,.634-.576,1.106-1.991,1.106a6.074,6.074,0,0,1-3.408-1.077l-.812,1.8a7.354,7.354,0,0,0,4.2,1.2c2.95,0,4.381-1.475,4.381-3.2,0-3.791-6.008-2.486-6.008-4.381m-39.775-2.921-4.611,10.315h2.449l.914-2.212h4.8l.914,2.212h2.507L660,424.355H657.64Zm-.472,6.3,1.637-3.953,1.637,3.953h-3.281ZM693.4,416.605a2.374,2.374,0,0,1-1.918-1.135l-1.328,1.593a4.151,4.151,0,0,0,3.362,1.5c2.434,0,3.716-1.253,3.716-3.806v-6.7h-6.008v1.927h3.627V414.9c0,1.135-.5,1.711-1.45,1.711m-85.22-8.6h-3.83v4.129a22.978,22.978,0,0,1,3.83-.493Zm5.747,18.156V420a15.39,15.39,0,0,0-3.83-.733v6.894a8.44,8.44,0,0,0,8.44,8.44h13.741v-3.83H618.541a4.607,4.607,0,0,1-4.607-4.607m35.1,8.521,4.468-10.325h-2.374l-3.186,7.379-3.141-7.375h-2.583l4.454,10.325h2.36Zm-49.286-.081a8.44,8.44,0,0,0,8.44-8.44v-6.9a15.387,15.387,0,0,0-3.83.733v6.161a4.607,4.607,0,0,1-4.607,4.607H586v3.83h13.743Zm-1.97-12.962a17.246,17.246,0,0,1,27.625,7.213h4.019a21.077,21.077,0,0,0-40.552,0h4.017a17.272,17.272,0,0,1,4.891-7.215m16.159-13.631H610.1v3.636a22.979,22.979,0,0,1,3.83.485v-4.12ZM688.13,434.68h2.389V426.3h3.3v-1.947h-9.007V426.3h3.315v8.378Zm-38.325-18.245H645.4v-8.378h-2.389v10.325h6.8Zm37.587-8.378H685v10.325h2.389Zm-8.908,10.325,4.466-10.325h-2.374l-3.186,7.375-3.141-7.375h-2.575l4.454,10.325h2.36ZM654.17,416.17h4.794l.914,2.212h2.507l-4.613-10.325h-2.362l-4.6,10.325h2.449Zm2.405-5.772,1.637,3.953h-3.273Zm8.63,7.98h2.389v-8.373H670.7v-1.947H662.09v1.947H665.2v8.378Z" transform="translate(-586.004 -407.882)"/>
    </g>
  </g>
</svg>
