<?xml version="1.0" encoding="utf-8"?>
<!-- Generator: Adobe Illustrator 26.1.0, SVG Export Plug-In . SVG Version: 6.00 Build 0)  -->
<svg version="1.2" baseProfile="tiny" id="Layer_1" xmlns="http://www.w3.org/2000/svg" xmlns:xlink="http://www.w3.org/1999/xlink"
	 x="0px" y="0px" viewBox="0 0 250.9 116.3" overflow="visible" xml:space="preserve">
<g>
	<path fill="#4D4F50" d="M76.8,41.5V30.1h-4.5v-3.3h13.2v3.3H81v11.4H76.8z"/>
	<path fill="#4D4F50" d="M87.9,41.5V26.8h6.7c1.3,0,2.5,0.2,3.5,0.7s1.7,1.1,2.3,1.9s0.8,1.8,0.8,2.9c0,1.1-0.3,2.1-0.8,2.9
		c-0.5,0.8-1.3,1.4-2.3,1.9c-1,0.4-2.1,0.6-3.5,0.6h-4.4l1.9-1.7v5.7H87.9z M92,36.3l-1.9-1.9h4.2c0.9,0,1.5-0.2,1.9-0.6
		c0.4-0.4,0.6-0.9,0.6-1.6c0-0.7-0.2-1.2-0.6-1.6c-0.4-0.4-1.1-0.6-1.9-0.6h-4.2l1.9-1.9V36.3z M97,41.5l-3.7-5.4h4.4l3.7,5.4H97z"
		/>
	<path fill="#4D4F50" d="M102.5,41.5l6.5-14.7h4.1l6.5,14.7h-4.3l-5.1-12.7h1.6l-5.1,12.7H102.5z M106.1,38.6l1.1-3.1h7.2l1.1,3.1
		H106.1z"/>
	<path fill="#4D4F50" d="M121.6,41.5V26.8h3.4l8.1,9.8h-1.6v-9.8h4.1v14.7h-3.4l-8.1-9.8h1.6v9.8H121.6z"/>
	<path fill="#4D4F50" d="M144.6,41.8c-1.2,0-2.4-0.2-3.5-0.5c-1.1-0.3-2-0.7-2.7-1.2l1.4-3.1c0.7,0.4,1.4,0.8,2.3,1
		c0.9,0.3,1.7,0.4,2.6,0.4c0.6,0,1-0.1,1.4-0.2s0.6-0.2,0.8-0.4c0.2-0.2,0.2-0.4,0.2-0.6c0-0.3-0.2-0.6-0.5-0.8
		c-0.3-0.2-0.7-0.4-1.2-0.5c-0.5-0.1-1-0.3-1.6-0.4c-0.6-0.1-1.2-0.3-1.8-0.5c-0.6-0.2-1.1-0.5-1.6-0.8c-0.5-0.3-0.9-0.7-1.2-1.2
		c-0.3-0.5-0.5-1.2-0.5-1.9c0-0.9,0.2-1.7,0.7-2.4c0.5-0.7,1.2-1.3,2.2-1.7c1-0.4,2.2-0.7,3.6-0.7c1,0,1.9,0.1,2.9,0.3
		c0.9,0.2,1.8,0.5,2.5,1l-1.3,3.1c-0.7-0.4-1.4-0.7-2.1-0.9c-0.7-0.2-1.4-0.3-2-0.3c-0.6,0-1,0.1-1.4,0.2c-0.4,0.1-0.6,0.3-0.8,0.5
		c-0.2,0.2-0.2,0.4-0.2,0.7c0,0.3,0.2,0.6,0.5,0.8c0.3,0.2,0.7,0.3,1.2,0.5c0.5,0.1,1,0.2,1.6,0.4c0.6,0.1,1.2,0.3,1.8,0.5
		c0.6,0.2,1.1,0.4,1.6,0.8c0.5,0.3,0.9,0.7,1.2,1.2c0.3,0.5,0.5,1.2,0.5,1.9c0,0.9-0.2,1.6-0.7,2.4c-0.5,0.7-1.2,1.3-2.2,1.7
		C147.3,41.6,146.1,41.8,144.6,41.8z"/>
	<path fill="#4D4F50" d="M153.9,41.5V26.8h6.7c1.3,0,2.5,0.2,3.5,0.7s1.7,1.1,2.3,1.9s0.8,1.8,0.8,2.9c0,1.1-0.3,2.1-0.8,2.9
		c-0.5,0.8-1.3,1.4-2.3,1.9c-1,0.4-2.1,0.7-3.5,0.7h-4.4l1.9-1.8v5.7H153.9z M158.1,36.3l-1.9-1.9h4.2c0.9,0,1.5-0.2,1.9-0.6
		c0.4-0.4,0.6-0.9,0.6-1.6c0-0.7-0.2-1.2-0.6-1.6c-0.4-0.4-1.1-0.6-1.9-0.6h-4.2l1.9-1.9V36.3z"/>
	<path fill="#4D4F50" d="M177.7,41.8c-1.2,0-2.3-0.2-3.3-0.6c-1-0.4-1.9-0.9-2.6-1.6c-0.7-0.7-1.3-1.5-1.7-2.4
		c-0.4-0.9-0.6-1.9-0.6-3.1s0.2-2.1,0.6-3.1c0.4-0.9,1-1.7,1.7-2.4c0.7-0.7,1.6-1.2,2.6-1.6c1-0.4,2.1-0.6,3.3-0.6
		c1.2,0,2.3,0.2,3.3,0.6c1,0.4,1.8,0.9,2.6,1.6c0.7,0.7,1.3,1.5,1.7,2.4c0.4,0.9,0.6,1.9,0.6,3.1s-0.2,2.1-0.6,3.1
		c-0.4,0.9-1,1.7-1.7,2.4c-0.7,0.7-1.6,1.2-2.6,1.6C180,41.6,178.9,41.8,177.7,41.8z M177.7,38.3c0.6,0,1.1-0.1,1.6-0.3
		c0.5-0.2,0.9-0.5,1.3-0.9c0.4-0.4,0.6-0.8,0.8-1.3c0.2-0.5,0.3-1.1,0.3-1.7c0-0.6-0.1-1.2-0.3-1.7c-0.2-0.5-0.5-1-0.8-1.3
		c-0.4-0.4-0.8-0.7-1.3-0.9c-0.5-0.2-1-0.3-1.6-0.3c-0.6,0-1.1,0.1-1.6,0.3c-0.5,0.2-0.9,0.5-1.3,0.9c-0.4,0.4-0.6,0.8-0.8,1.3
		c-0.2,0.5-0.3,1.1-0.3,1.7c0,0.6,0.1,1.2,0.3,1.7c0.2,0.5,0.5,1,0.8,1.3c0.4,0.4,0.8,0.7,1.3,0.9C176.6,38.2,177.1,38.3,177.7,38.3
		z"/>
	<path fill="#4D4F50" d="M188.9,41.5V26.8h6.7c1.3,0,2.5,0.2,3.5,0.7s1.7,1.1,2.3,1.9s0.8,1.8,0.8,2.9c0,1.1-0.3,2.1-0.8,2.9
		c-0.5,0.8-1.3,1.4-2.3,1.9c-1,0.4-2.1,0.6-3.5,0.6h-4.4l1.9-1.7v5.7H188.9z M193.1,36.3l-1.9-1.9h4.2c0.9,0,1.5-0.2,1.9-0.6
		c0.4-0.4,0.6-0.9,0.6-1.6c0-0.7-0.2-1.2-0.6-1.6c-0.4-0.4-1.1-0.6-1.9-0.6h-4.2l1.9-1.9V36.3z M198,41.5l-3.7-5.4h4.4l3.7,5.4H198z
		"/>
	<path fill="#4D4F50" d="M208.2,41.5V30.1h-4.5v-3.3h13.2v3.3h-4.5v11.4H208.2z"/>
	<path fill="#4D4F50" d="M224.4,41.8c-1.2,0-2.4-0.2-3.5-0.5c-1.1-0.3-2-0.7-2.7-1.2l1.4-3.1c0.7,0.4,1.4,0.8,2.3,1
		c0.9,0.3,1.7,0.4,2.6,0.4c0.6,0,1-0.1,1.4-0.2c0.4-0.1,0.6-0.2,0.8-0.4c0.2-0.2,0.2-0.4,0.2-0.6c0-0.3-0.2-0.6-0.5-0.8
		c-0.3-0.2-0.7-0.4-1.2-0.5c-0.5-0.1-1-0.3-1.6-0.4c-0.6-0.1-1.2-0.3-1.8-0.5c-0.6-0.2-1.1-0.5-1.6-0.8c-0.5-0.3-0.9-0.7-1.2-1.2
		c-0.3-0.5-0.5-1.2-0.5-1.9c0-0.9,0.2-1.7,0.7-2.4c0.5-0.7,1.2-1.3,2.2-1.7c1-0.4,2.2-0.7,3.6-0.7c1,0,1.9,0.1,2.9,0.3
		c0.9,0.2,1.8,0.5,2.5,1l-1.3,3.1c-0.7-0.4-1.4-0.7-2.1-0.9c-0.7-0.2-1.4-0.3-2-0.3c-0.6,0-1,0.1-1.4,0.2c-0.4,0.1-0.6,0.3-0.8,0.5
		c-0.2,0.2-0.2,0.4-0.2,0.7c0,0.3,0.1,0.6,0.5,0.8c0.3,0.2,0.7,0.3,1.2,0.5c0.5,0.1,1,0.2,1.6,0.4c0.6,0.1,1.2,0.3,1.8,0.5
		c0.6,0.2,1.1,0.4,1.6,0.8c0.5,0.3,0.9,0.7,1.2,1.2c0.3,0.5,0.5,1.2,0.5,1.9c0,0.9-0.2,1.6-0.7,2.4c-0.5,0.7-1.2,1.3-2.2,1.7
		C227.1,41.6,225.9,41.8,224.4,41.8z"/>
	<path fill="#4D4F50" d="M73.6,64.8V50h3.4l6.1,10h-1.8l5.9-10h3.4l0,14.7h-3.8l0-8.9h0.7l-4.4,7.4h-1.9l-4.6-7.4h0.8v8.9H73.6z"/>
	<path fill="#4D4F50" d="M102,65c-1.2,0-2.3-0.2-3.3-0.6c-1-0.4-1.9-0.9-2.6-1.6s-1.3-1.5-1.7-2.4c-0.4-0.9-0.6-1.9-0.6-3.1
		s0.2-2.1,0.6-3.1c0.4-0.9,1-1.7,1.7-2.4c0.7-0.7,1.6-1.2,2.6-1.6c1-0.4,2.1-0.6,3.3-0.6c1.2,0,2.3,0.2,3.3,0.6
		c1,0.4,1.8,0.9,2.6,1.6c0.7,0.7,1.3,1.5,1.7,2.4c0.4,0.9,0.6,1.9,0.6,3.1s-0.2,2.1-0.6,3.1c-0.4,0.9-1,1.7-1.7,2.4
		c-0.7,0.7-1.6,1.2-2.6,1.6C104.3,64.9,103.2,65,102,65z M102,61.6c0.6,0,1.1-0.1,1.6-0.3c0.5-0.2,0.9-0.5,1.3-0.9
		c0.4-0.4,0.6-0.8,0.8-1.3c0.2-0.5,0.3-1.1,0.3-1.7c0-0.6-0.1-1.2-0.3-1.7c-0.2-0.5-0.5-1-0.8-1.3c-0.4-0.4-0.8-0.7-1.3-0.9
		c-0.5-0.2-1-0.3-1.6-0.3c-0.6,0-1.1,0.1-1.6,0.3c-0.5,0.2-0.9,0.5-1.3,0.9c-0.4,0.4-0.6,0.8-0.8,1.3c-0.2,0.5-0.3,1.1-0.3,1.7
		c0,0.6,0.1,1.2,0.3,1.7c0.2,0.5,0.5,1,0.8,1.3c0.4,0.4,0.8,0.7,1.3,0.9C100.9,61.5,101.4,61.6,102,61.6z"/>
	<path fill="#4D4F50" d="M113.2,64.8V50h7.5c1.9,0,3.4,0.4,4.3,1.1c1,0.7,1.4,1.6,1.4,2.8c0,0.8-0.2,1.4-0.6,2c-0.4,0.6-1,1-1.7,1.3
		c-0.7,0.3-1.6,0.5-2.6,0.5l0.4-1c1,0,1.9,0.2,2.7,0.5c0.8,0.3,1.4,0.8,1.8,1.4c0.4,0.6,0.6,1.3,0.6,2.2c0,1.3-0.5,2.3-1.5,3
		c-1,0.7-2.5,1.1-4.5,1.1H113.2z M117.3,61.7h3.5c0.7,0,1.3-0.1,1.6-0.4c0.4-0.2,0.6-0.6,0.6-1.1c0-0.5-0.2-0.9-0.6-1.1
		c-0.4-0.2-0.9-0.4-1.6-0.4H117v-2.9h3.2c0.7,0,1.2-0.1,1.6-0.4c0.4-0.2,0.5-0.6,0.5-1.1c0-0.5-0.2-0.8-0.5-1.1
		c-0.4-0.2-0.9-0.3-1.6-0.3h-2.9V61.7z"/>
	<path fill="#4D4F50" d="M130.2,64.8V50h4.2v14.7H130.2z"/>
	<path fill="#4D4F50" d="M138.2,64.8V50h4.2v11.4h7v3.3H138.2z"/>
	<path fill="#4D4F50" d="M151.9,64.8V50h4.2v14.7H151.9z"/>
	<path fill="#4D4F50" d="M163,64.8V53.3h-4.5V50h13.2v3.3h-4.5v11.4H163z"/>
	<path fill="#4D4F50" d="M171.6,64.8l6.5-14.7h4.1l6.5,14.7h-4.3l-5.1-12.7h1.6l-5.1,12.7H171.6z M175.1,61.9l1.1-3.1h7.2l1.1,3.1
		H175.1z M176,48.3v-2.1h8.3v2.1H176z"/>
	<path fill="#4D4F50" d="M193.1,64.8V53.3h-4.5V50h13.2v3.3h-4.5v11.4H193.1z"/>
	<path fill="#4D4F50" d="M208.3,61.5h7.7v3.2h-11.8V50h11.6v3.2h-7.4V61.5z M208,55.7h6.8v3.1H208V55.7z"/>
	<path fill="#4D4F50" d="M73.1,87.2v-7.8h1.5l4.6,5.6h-0.7v-5.6h1.8v7.8h-1.5l-4.6-5.6h0.7v5.6H73.1z"/>
	<path fill="#4D4F50" d="M81.5,87.2l3.5-7.8h1.8l3.5,7.8h-1.9l-2.8-6.9h0.7l-2.8,6.9H81.5z M83.2,85.6l0.5-1.4h4l0.5,1.4H83.2z"/>
	<path fill="#4D4F50" d="M95,87.4c-0.6,0-1.2-0.1-1.7-0.3c-0.5-0.2-1-0.5-1.3-0.8c-0.4-0.4-0.7-0.8-0.9-1.3c-0.2-0.5-0.3-1-0.3-1.6
		c0-0.6,0.1-1.1,0.3-1.6c0.2-0.5,0.5-0.9,0.9-1.3c0.4-0.4,0.8-0.6,1.3-0.8c0.5-0.2,1.1-0.3,1.7-0.3c0.7,0,1.3,0.1,1.8,0.3
		c0.5,0.2,1,0.6,1.4,1l-1.2,1.1c-0.3-0.3-0.6-0.5-0.9-0.7c-0.3-0.2-0.7-0.2-1.1-0.2c-0.4,0-0.7,0.1-1,0.2c-0.3,0.1-0.6,0.3-0.8,0.5
		c-0.2,0.2-0.4,0.5-0.5,0.8c-0.1,0.3-0.2,0.6-0.2,1c0,0.4,0.1,0.7,0.2,1c0.1,0.3,0.3,0.6,0.5,0.8s0.5,0.4,0.8,0.5
		c0.3,0.1,0.6,0.2,1,0.2c0.4,0,0.7-0.1,1.1-0.2c0.3-0.2,0.6-0.4,0.9-0.7l1.2,1.1c-0.4,0.5-0.8,0.8-1.4,1S95.7,87.4,95,87.4z"/>
	<path fill="#4D4F50" d="M99.9,87.2v-7.8h1.8v7.8H99.9z"/>
	<path fill="#4D4F50" d="M107.7,87.4c-0.6,0-1.2-0.1-1.7-0.3c-0.5-0.2-1-0.5-1.4-0.8c-0.4-0.4-0.7-0.8-0.9-1.3
		c-0.2-0.5-0.3-1-0.3-1.6c0-0.6,0.1-1.1,0.3-1.6c0.2-0.5,0.5-0.9,0.9-1.3c0.4-0.4,0.8-0.6,1.4-0.8c0.5-0.2,1.1-0.3,1.7-0.3
		c0.6,0,1.2,0.1,1.7,0.3c0.5,0.2,1,0.5,1.3,0.8c0.4,0.4,0.7,0.8,0.9,1.3c0.2,0.5,0.3,1,0.3,1.6c0,0.6-0.1,1.1-0.3,1.6
		c-0.2,0.5-0.5,0.9-0.9,1.3c-0.4,0.4-0.8,0.6-1.3,0.8C108.9,87.3,108.3,87.4,107.7,87.4z M107.7,85.8c0.3,0,0.7-0.1,1-0.2
		c0.3-0.1,0.5-0.3,0.8-0.5c0.2-0.2,0.4-0.5,0.5-0.8s0.2-0.6,0.2-1c0-0.4-0.1-0.7-0.2-1c-0.1-0.3-0.3-0.6-0.5-0.8
		c-0.2-0.2-0.5-0.4-0.8-0.5c-0.3-0.1-0.6-0.2-1-0.2c-0.3,0-0.7,0.1-1,0.2c-0.3,0.1-0.5,0.3-0.8,0.5c-0.2,0.2-0.4,0.5-0.5,0.8
		c-0.1,0.3-0.2,0.6-0.2,1c0,0.4,0.1,0.7,0.2,1c0.1,0.3,0.3,0.6,0.5,0.8s0.5,0.4,0.8,0.5C107.1,85.8,107.4,85.8,107.7,85.8z"/>
	<path fill="#4D4F50" d="M113.8,87.2v-7.8h1.5l4.6,5.6h-0.7v-5.6h1.8v7.8h-1.5l-4.6-5.6h0.7v5.6H113.8z"/>
	<path fill="#4D4F50" d="M122.1,87.2l3.5-7.8h1.8l3.5,7.8H129l-2.8-6.9h0.7l-2.8,6.9H122.1z M123.9,85.6l0.5-1.4h4l0.5,1.4H123.9z
		 M124.4,78.5v-1h4.1v1H124.4z"/>
	<path fill="#4D4F50" d="M132.1,87.2v-7.8h1.8v6.3h3.9v1.5H132.1z"/>
	<path fill="#4D4F50" d="M138.3,87.2l3.5-7.8h1.8l3.5,7.8h-1.9l-2.8-6.9h0.7l-2.8,6.9H138.3z M140,85.6l0.5-1.4h4l0.5,1.4H140z"/>
	<path fill="#4D4F50" d="M148.2,87.2v-7.8h1.8v7.8H148.2z"/>
	<path fill="#4D4F50" d="M154.8,87.4c-0.6,0-1.2-0.1-1.8-0.2c-0.6-0.2-1-0.4-1.4-0.6l0.6-1.4c0.3,0.2,0.7,0.4,1.2,0.6
		c0.5,0.2,0.9,0.2,1.4,0.2c0.4,0,0.6,0,0.9-0.1c0.2-0.1,0.4-0.2,0.5-0.3c0.1-0.1,0.2-0.3,0.2-0.4c0-0.2-0.1-0.4-0.2-0.5
		c-0.2-0.1-0.4-0.2-0.6-0.3c-0.3-0.1-0.6-0.2-0.9-0.2c-0.3-0.1-0.6-0.2-1-0.3c-0.3-0.1-0.6-0.2-0.9-0.4c-0.3-0.2-0.5-0.4-0.6-0.6
		c-0.2-0.3-0.2-0.6-0.2-1c0-0.4,0.1-0.8,0.4-1.2c0.2-0.4,0.6-0.7,1.1-0.9c0.5-0.2,1.1-0.3,1.8-0.3c0.5,0,1,0.1,1.4,0.2
		c0.5,0.1,0.9,0.3,1.3,0.5l-0.6,1.4c-0.4-0.2-0.7-0.4-1.1-0.5c-0.4-0.1-0.7-0.1-1.1-0.1s-0.6,0-0.9,0.1c-0.2,0.1-0.4,0.2-0.5,0.3
		c-0.1,0.1-0.1,0.3-0.1,0.4c0,0.2,0.1,0.4,0.2,0.5c0.2,0.1,0.4,0.2,0.6,0.3c0.3,0.1,0.6,0.1,0.9,0.2c0.3,0.1,0.6,0.2,1,0.3
		c0.3,0.1,0.6,0.2,0.9,0.4c0.3,0.2,0.5,0.4,0.6,0.6c0.2,0.3,0.2,0.6,0.2,1c0,0.4-0.1,0.8-0.4,1.2c-0.2,0.4-0.6,0.7-1.1,0.9
		C156.2,87.2,155.6,87.4,154.8,87.4z"/>
	<path fill="#4D4F50" d="M163.4,87.2v-7.8h3.4c0.7,0,1.3,0.1,1.8,0.3c0.5,0.2,0.9,0.5,1.2,1c0.3,0.4,0.4,0.9,0.4,1.5
		c0,0.6-0.1,1.1-0.4,1.5c-0.3,0.4-0.7,0.7-1.2,1s-1.1,0.3-1.8,0.3h-2.4l0.8-0.8v2.9H163.4z M165.2,84.5l-0.8-0.9h2.3
		c0.6,0,1-0.1,1.2-0.4c0.3-0.2,0.4-0.6,0.4-1c0-0.4-0.1-0.8-0.4-1c-0.3-0.2-0.7-0.4-1.2-0.4h-2.3l0.8-0.9V84.5z"/>
	<path fill="#4D4F50" d="M171.8,87.2v-7.8h1.8v7.8H171.8z"/>
	<path fill="#4D4F50" d="M177.7,85.8h4.2v1.4h-6v-7.8h5.9v1.4h-4.1V85.8z M177.6,82.6h3.7V84h-3.7V82.6z"/>
	<path fill="#4D4F50" d="M183.8,87.2v-7.8h1.8v7.8H183.8z M185.4,85.4l-0.1-2.1l3.7-3.9h2l-3.3,3.6l-1,1.1L185.4,85.4z M189.1,87.2
		l-2.8-3.4l1.2-1.3l3.7,4.7H189.1z"/>
	<path fill="#4D4F50" d="M192.5,87.2v-7.8h1.8v6.3h3.9v1.5H192.5z M194.8,90.2l0.4-1.4l0.2,0.6c-0.3,0-0.4-0.1-0.6-0.2
		c-0.1-0.1-0.2-0.3-0.2-0.5c0-0.2,0.1-0.4,0.2-0.5c0.1-0.1,0.3-0.2,0.6-0.2c0.2,0,0.4,0.1,0.6,0.2c0.1,0.1,0.2,0.3,0.2,0.5
		c0,0.1,0,0.2,0,0.3c0,0.1-0.1,0.3-0.2,0.4l-0.4,0.8H194.8z"/>
	<path fill="#4D4F50" d="M202.9,87.4c-1.1,0-2-0.3-2.6-0.9c-0.6-0.6-0.9-1.5-0.9-2.6v-4.3h1.8v4.3c0,0.7,0.2,1.3,0.5,1.6
		c0.3,0.3,0.7,0.5,1.3,0.5c0.5,0,1-0.2,1.3-0.5c0.3-0.3,0.5-0.9,0.5-1.6v-4.3h1.8v4.3c0,1.1-0.3,2-0.9,2.6
		C204.9,87,204,87.4,202.9,87.4z"/>
	<path fill="#4D4F50" d="M211,87.2l-3.3-7.8h1.9l2.9,6.9h-1.1l3-6.9h1.8l-3.4,7.8H211z"/>
	<path fill="#4D4F50" d="M219,85.8h4.2v1.4h-6v-7.8h5.9v1.4H219V85.8z M218.9,82.6h3.7V84h-3.7V82.6z"/>
	<path fill="#4D4F50" d="M227.6,87.4c-0.6,0-1.2-0.1-1.8-0.2c-0.6-0.2-1-0.4-1.4-0.6l0.6-1.4c0.3,0.2,0.7,0.4,1.2,0.6
		c0.5,0.2,0.9,0.2,1.4,0.2c0.4,0,0.6,0,0.9-0.1c0.2-0.1,0.4-0.2,0.5-0.3s0.2-0.3,0.2-0.4c0-0.2-0.1-0.4-0.2-0.5s-0.4-0.2-0.6-0.3
		c-0.3-0.1-0.6-0.2-0.9-0.2c-0.3-0.1-0.6-0.2-1-0.3c-0.3-0.1-0.6-0.2-0.9-0.4c-0.3-0.2-0.5-0.4-0.6-0.6c-0.2-0.3-0.2-0.6-0.2-1
		c0-0.4,0.1-0.8,0.4-1.2c0.2-0.4,0.6-0.7,1.1-0.9c0.5-0.2,1.1-0.3,1.8-0.3c0.5,0,1,0.1,1.4,0.2c0.5,0.1,0.9,0.3,1.3,0.5l-0.6,1.4
		c-0.4-0.2-0.7-0.4-1.1-0.5c-0.4-0.1-0.7-0.1-1.1-0.1s-0.6,0-0.9,0.1c-0.2,0.1-0.4,0.2-0.5,0.3c-0.1,0.1-0.1,0.3-0.1,0.4
		c0,0.2,0.1,0.4,0.2,0.5s0.4,0.2,0.6,0.3c0.3,0.1,0.6,0.1,0.9,0.2c0.3,0.1,0.6,0.2,1,0.3c0.3,0.1,0.6,0.2,0.9,0.4
		c0.3,0.2,0.5,0.4,0.6,0.6c0.2,0.3,0.2,0.6,0.2,1c0,0.4-0.1,0.8-0.4,1.2c-0.2,0.4-0.6,0.7-1.1,0.9C229,87.2,228.4,87.4,227.6,87.4z"
		/>
	<path fill="#4D4F50" d="M73.1,100.5v-7.8h3.4c0.7,0,1.3,0.1,1.8,0.3c0.5,0.2,0.9,0.5,1.2,1c0.3,0.4,0.4,0.9,0.4,1.5
		c0,0.6-0.1,1.1-0.4,1.5c-0.3,0.4-0.7,0.7-1.2,1c-0.5,0.2-1.1,0.3-1.8,0.3h-2.4l0.8-0.8v2.9H73.1z M74.9,97.8l-0.8-0.9h2.3
		c0.6,0,1-0.1,1.2-0.4c0.3-0.2,0.4-0.6,0.4-1c0-0.4-0.1-0.8-0.4-1c-0.3-0.2-0.7-0.4-1.2-0.4h-2.3l0.8-0.9V97.8z"/>
	<path fill="#4D4F50" d="M85,100.6c-1.1,0-2-0.3-2.6-0.9c-0.6-0.6-0.9-1.5-0.9-2.6v-4.3h1.8V97c0,0.7,0.2,1.3,0.5,1.6
		c0.3,0.3,0.7,0.5,1.3,0.5s1-0.2,1.3-0.5c0.3-0.3,0.5-0.9,0.5-1.6v-4.3h1.8v4.3c0,1.1-0.3,2-0.9,2.6C86.9,100.3,86.1,100.6,85,100.6
		z"/>
	<path fill="#4D4F50" d="M90.7,100.5v-7.8h1.5l4.6,5.6H96v-5.6h1.8v7.8h-1.5l-4.6-5.6h0.7v5.6H90.7z"/>
	<path fill="#4D4F50" d="M100.1,100.5v-7.8h1.8v7.8H100.1z M101.7,98.7l-0.1-2.1l3.7-3.9h2l-3.3,3.6l-1,1.1L101.7,98.7z
		 M105.4,100.5l-2.8-3.4l1.2-1.3l3.7,4.7H105.4z"/>
	<path fill="#4D4F50" d="M109.8,100.5v-6.3h-2.5v-1.5h6.8v1.5h-2.5v6.3H109.8z"/>
	<path fill="#4D4F50" d="M118,100.6c-0.6,0-1.2-0.1-1.8-0.2c-0.6-0.2-1-0.4-1.4-0.6l0.6-1.4c0.3,0.2,0.7,0.4,1.2,0.6
		c0.5,0.2,0.9,0.2,1.4,0.2c0.4,0,0.6,0,0.9-0.1c0.2-0.1,0.4-0.2,0.5-0.3c0.1-0.1,0.2-0.3,0.2-0.4c0-0.2-0.1-0.4-0.2-0.5
		c-0.2-0.1-0.4-0.2-0.6-0.3c-0.3-0.1-0.6-0.2-0.9-0.2c-0.3-0.1-0.6-0.2-1-0.3c-0.3-0.1-0.6-0.2-0.9-0.4c-0.3-0.2-0.5-0.4-0.6-0.6
		c-0.2-0.3-0.2-0.6-0.2-1c0-0.4,0.1-0.8,0.4-1.2c0.2-0.4,0.6-0.7,1.1-0.9c0.5-0.2,1.1-0.3,1.8-0.3c0.5,0,1,0.1,1.4,0.2
		c0.5,0.1,0.9,0.3,1.3,0.5l-0.6,1.4c-0.4-0.2-0.7-0.4-1.1-0.5c-0.4-0.1-0.7-0.1-1.1-0.1s-0.6,0-0.9,0.1c-0.2,0.1-0.4,0.2-0.5,0.3
		c-0.1,0.1-0.1,0.3-0.1,0.4c0,0.2,0.1,0.4,0.2,0.5c0.2,0.1,0.4,0.2,0.6,0.3s0.6,0.1,0.9,0.2c0.3,0.1,0.6,0.2,1,0.3
		c0.3,0.1,0.6,0.2,0.9,0.4c0.3,0.2,0.5,0.4,0.6,0.6c0.2,0.3,0.2,0.6,0.2,1c0,0.4-0.1,0.8-0.4,1.2c-0.2,0.4-0.6,0.7-1.1,0.9
		C119.3,100.5,118.7,100.6,118,100.6z"/>
</g>
<path fill="#FFFFFF" d="M38.1,17.8l-2.7,3.4l-1.2-1.5c-6.6,5.3-3.8,1.3-10.3,6.7c0,0,1.4,1.7,1.5,1.8c0,0,0.9,0.9,0.9,0.9
	c0,0,0.8,1.1,0.8,1.2c0.1,0.1,1.8,2.2,1.9,2.3l8.7-5.6l8.5,5.6c0.1-0.1,1.8-2.2,1.8-2.3c0,0,0.7-1.2,0.8-1.2c0,0,0.9-0.9,0.9-0.9
	c0,0,1.4-1.8,1.4-1.8C42.7,19.7,46.5,24.5,38.1,17.8z"/>
<path fill="#9E313A" d="M37.5,25.6c-1.1,0-6.8,0.3-10.4,4.7c0,0,1.5,2.2,1.6,3.4c0.1,1.2,0.4,2.6,0.4,2.6s1.4-2.9,6-3.9
	c0.8-0.2,1.6-0.3,2.5-0.3c0.8,0,1.7,0.1,2.5,0.3c4.6,1,6,3.9,6,3.9s0.3-1.4,0.4-2.6c0.1-1.2,1.6-3.4,1.6-3.4
	C44.3,25.9,38.6,25.6,37.5,25.6z"/>
<path fill="#9E313A" d="M37.5,15.3c-1.5-0.1-11.2,0.2-16.8,9.5c0,0,3.2,1.9,4.6,3.3c0,0,3.1-6.1,12.2-6.2c9.1,0.1,12.2,6.2,12.2,6.2
	c1.4-1.4,4.6-3.2,4.6-3.2C48.6,15.5,39,15.2,37.5,15.3z"/>
<path fill="#4D4F50" d="M55.1,26.5c-7.3,4-6.7,8-6.9,9.4c-1.3,7.8-10.7,7.9-10.7,7.9s-9.4-0.1-10.7-7.9c-0.2-1.5,0.3-5.5-6.9-9.4
	c0,0-10.1,10.8,17.6,38.2C65.2,37.4,55.1,26.5,55.1,26.5z"/>
<path fill="#9E313A" d="M26.2,28.7"/>
</svg>
