<?xml version="1.0" encoding="UTF-8" standalone="no"?> <svg id="Layer_1" data-name="Layer 1" xmlns="http://www.w3.org/2000/svg" viewBox="0 0 512 512"><title>Synchronization</title><path d="M446.452,231.973A192.112,192.112,0,0,0,285.51,66.251l9.57-9.493a21.333,21.333,0,1,0-30.048-30.292L219.6,71.536a21.333,21.333,0,0,0-.123,30.169l45.067,45.44A21.333,21.333,0,0,0,294.834,117.1l-7-7.053A149.412,149.412,0,0,1,349.307,372.6a21.334,21.334,0,1,0,26.7,33.279A190.874,190.874,0,0,0,446.452,231.973Z"/><path d="M247.421,364.863a21.333,21.333,0,0,0-30.294,30.046l7,7.055a149.413,149.413,0,0,1-61.435-262.585A21.334,21.334,0,1,0,136,106.091,192.091,192.091,0,0,0,226.438,445.77l-9.556,9.479a21.333,21.333,0,0,0,30.048,30.292l45.434-45.07a21.334,21.334,0,0,0,.123-30.169Z"/></svg>