<svg xmlns="http://www.w3.org/2000/svg"  viewBox="0 0 24 24" width="24px" height="24px"><path d="M20.981,17.669l-1.333-12C19.479,4.149,18.195,3,16.666,3H7.334C5.805,3,4.521,4.149,4.352,5.669	l-1.333,12C2.821,19.446,4.212,21,6,21H18C19.788,21,21.179,19.446,20.981,17.669z" opacity=".35"/><path d="M11,21v-4c0-0.553,0.448-1,1-1s1,0.447,1,1v4H11z"/><path d="M13,3v2c0,0.553-0.448,1-1,1s-1-0.447-1-1V3H13z"/><path d="M11,13V9c0-0.553,0.448-1,1-1s1,0.447,1,1v4c0,0.553-0.448,1-1,1S11,13.553,11,13z"/></svg>