<svg xmlns="http://www.w3.org/2000/svg"  viewBox="0 0 24 24" width="24px" height="24px"><rect width="3" height="2" x="14" y="11"/><rect width="3" height="2" x="19" y="11"/><rect width="3" height="2" x="2" y="11"/><rect width="3" height="2" x="7" y="11"/><rect width="3" height="2" x="10.5" y="14.5" transform="rotate(90 12 15.5)"/><rect width="3" height="2" x="10.5" y="19.5" transform="rotate(90 12 20.5)"/><rect width="3" height="2" x="10.5" y="2.5" transform="rotate(90 12 3.5)"/><rect width="3" height="2" x="10.5" y="7.5" transform="rotate(90 12 8.5)"/><path d="M22,16V8h-6V2H3C2.448,2,2,2.448,2,3v1c0,0.552,0.448,1,1,1h5v3H2v8h6v6h13c0.552,0,1-0.448,1-1v-1	c0-0.552-0.448-1-1-1h-5v-3H22z" opacity=".35"/></svg>