<svg viewBox="433.4375 43.31837606837598 958.1249999999999 980.3632478632479" fill="none"
    xmlns="http://www.w3.org/2000/svg" xmlns:xlink="http://www.w3.org/1999/xlink" overflow="visible"
    width="958.1249999999999px" height="980.3632478632479px">
    <g id="Master/Background/Sun">
        <g id="Background/Sun" style="mix-blend-mode:soft-light">
            <g id="Path" style="mix-blend-mode:soft-light">
                <path
                    d="M1052.39 355.073C1017.36 340.022 985.129 332.102 953.845 330.884C913.668 329.633 873.843 338.721 838.186 357.277C768.217 393.112 723.924 456.039 716.667 529.95C711.776 579.833 720.143 624.054 741.555 661.359C762.519 697.911 794.789 725.863 837.451 744.551C864.202 756.234 901.686 763.204 941.374 763.204C982.334 763.204 1025.59 755.768 1061.76 738.423C1104.44 717.961 1132.72 685.942 1143.58 645.842C1173.1 536.58 1151.21 397.556 1052.39 355.073Z"
                    fill="#fde900" />
            </g>
            <g id="Path_2" style="mix-blend-mode:soft-light">
                <path
                    d="M701.149 284.656C693.373 275.912 670.868 253.444 649.761 233.895C603.927 191.466 592.012 187.542 586.278 185.75C577.79 182.87 568.41 184.736 561.671 190.647C554.932 196.558 551.859 205.615 553.608 214.406C555.357 223.197 561.664 230.388 570.152 233.268C585.078 240.274 647.862 300.352 663.647 318.073C669.589 324.824 678.691 327.877 687.502 326.075C696.313 324.274 703.485 317.893 706.3 309.352C709.116 300.811 707.144 291.416 701.131 284.728L701.149 284.656Z"
                    fill="#fde900" />
            </g>
            <g id="Path_3" style="mix-blend-mode:soft-light">
                <path
                    d="M497.209 448.317C514.894 448.317 577.946 451.237 594.449 453.155C595.425 453.262 596.406 453.316 597.387 453.316C610.636 453.251 621.549 442.894 622.307 429.668C623.066 416.441 613.408 404.905 600.254 403.325C581.691 401.157 516.954 398.237 497.424 398.147H497.316C483.462 398.117 472.208 409.324 472.178 423.178C472.148 437.032 483.355 448.287 497.209 448.317Z"
                    fill="#fde900" />
            </g>
            <g id="Path_4" style="mix-blend-mode:soft-light">
                <path
                    d="M580.922 617.909C594.711 616.563 604.799 604.293 603.453 590.504C602.108 576.714 589.838 566.626 576.048 567.972C547.899 570.713 483.18 585.89 456.662 595.834C448.116 598.881 441.881 606.305 440.357 615.25C438.833 624.194 442.258 633.264 449.314 638.969C456.369 644.674 465.956 646.124 474.383 642.761C497.085 634.196 556.822 620.256 580.922 617.909Z"
                    fill="#fde900" />
            </g>
            <g id="Path_5" style="mix-blend-mode:soft-light">
                <path
                    d="M596.457 743.566C565.495 759.943 497.712 823.371 478.504 845.249C470.168 855.714 471.511 870.879 481.558 879.715C491.604 888.551 506.817 887.947 516.131 878.343C534.461 857.469 597.227 799.881 619.839 787.912C627.863 783.778 633.046 775.652 633.413 766.634C633.78 757.615 629.274 749.095 621.613 744.322C613.952 739.55 604.318 739.261 596.385 743.566H596.457Z"
                    fill="#fde900" />
            </g>
            <g id="Path_6" style="mix-blend-mode:soft-light">
                <path
                    d="M770.867 867.682C765.353 863.958 758.584 862.577 752.052 863.844C745.519 865.111 739.758 868.922 736.035 874.437C719.174 899.433 699.698 927.778 696.258 932.007C687.693 942.642 689.208 958.173 699.665 966.953C710.123 975.733 725.682 974.535 734.673 964.259C740.479 957.343 766.656 918.748 777.676 902.479C785.397 890.988 782.349 875.415 770.867 867.682Z"
                    fill="#fde900" />
            </g>
            <g id="Path_7" style="mix-blend-mode:soft-light">
                <path
                    d="M1352.64 548.333C1330.76 543.567 1304.58 537.583 1300.27 536.328C1287.22 532.365 1273.4 539.541 1269.14 552.488C1264.88 565.436 1271.74 579.416 1284.59 583.972C1291.24 586.194 1323.38 593.307 1341.93 597.356C1355.46 600.325 1368.84 591.757 1371.81 578.22C1374.78 564.683 1366.21 551.302 1352.68 548.333H1352.64Z"
                    fill="#fde900" />
            </g>
            <g id="Path_8" style="mix-blend-mode:soft-light">
                <path
                    d="M996.095 893.377C996.373 884.415 991.85 875.985 984.228 871.263C976.606 866.541 967.043 866.244 959.143 870.484C951.242 874.723 946.204 882.856 945.925 891.818C945.674 899.935 945.925 912.513 946.212 927.098C946.588 946.808 947.072 971.158 946.033 981.389C944.636 995.168 954.67 1007.47 968.448 1008.87C969.299 1008.96 970.154 1009 971.01 1009C983.873 1008.98 994.638 999.239 995.934 986.442C997.278 973.201 996.812 949.262 996.346 926.095C996.113 912.8 995.88 900.221 996.095 893.377Z"
                    fill="#fde900" />
            </g>
            <g id="Path_9" style="mix-blend-mode:soft-light">
                <path
                    d="M1211.57 893.108C1203.26 885.582 1192.92 876.211 1189.77 872.055C1181.36 861.026 1165.6 858.904 1154.57 867.315C1143.54 875.727 1141.42 891.486 1149.83 902.515C1155.8 910.363 1165.96 919.644 1177.89 930.377C1187.44 939.031 1201.86 952.111 1205.39 957.594C1210.22 965.169 1218.73 969.585 1227.7 969.171C1236.68 968.757 1244.74 963.576 1248.85 955.589C1252.96 947.601 1252.49 938.026 1247.61 930.484C1240.49 919.304 1226.46 906.582 1211.57 893.108Z"
                    fill="#fde900" />
            </g>
            <g id="Path_10" style="mix-blend-mode:soft-light">
                <path
                    d="M1352.57 743.261C1334.97 734.553 1289.64 721.366 1254.7 711.834C1241.52 708.649 1228.19 716.525 1224.61 729.612C1221.04 742.699 1228.52 756.255 1241.5 760.212C1285.84 772.306 1319.89 783.021 1330.31 788.199C1342.73 794.344 1357.78 789.258 1363.93 776.839C1370.07 764.42 1364.99 749.371 1352.57 743.226V743.261Z"
                    fill="#fde900" />
            </g>
            <g id="Shape" style="mix-blend-mode:soft-light">
                <path
                    d="M1385.32 397C1384.43 383.176 1372.5 372.692 1358.68 373.581C1355.72 373.761 1349.59 374.155 1308.51 388.22C1267.42 402.286 1262.05 405.833 1259.75 407.356C1250.55 413.488 1246.45 424.921 1249.66 435.503C1252.86 446.085 1262.62 453.32 1273.68 453.316C1278.18 453.304 1282.6 452.065 1286.45 449.732C1296.22 445.002 1352.66 425.704 1363.41 423.429C1376.54 421.78 1386.13 410.211 1385.32 397ZM1361.89 423.644L1362.98 423.554C1362.64 423.608 1362.19 423.626 1361.89 423.644Z"
                    fill="#fde900" />
            </g>
            <g id="Path_11" style="mix-blend-mode:soft-light">
                <path
                    d="M1158 321.799C1169.3 329.8 1184.95 327.129 1192.96 315.833C1205.09 298.721 1225.01 287.164 1246.1 274.819C1264.12 264.319 1282.76 253.443 1298.17 238.123C1304.74 231.853 1307.4 222.522 1305.14 213.728C1302.87 204.935 1296.04 198.051 1287.26 195.729C1278.48 193.408 1269.13 196.013 1262.82 202.539C1251.94 213.289 1236.84 222.141 1220.82 231.476C1197.2 245.255 1170.45 260.861 1152.03 286.824C1148.18 292.253 1146.65 298.988 1147.77 305.548C1148.89 312.107 1152.57 317.953 1158 321.799Z"
                    fill="#fde900" />
            </g>
            <g id="Path_12" style="mix-blend-mode:soft-light">
                <path
                    d="M1007.63 223.987C1020.09 230.041 1035.1 224.852 1041.16 212.394C1045.55 203.345 1051.53 188.689 1057.86 173.172C1065.94 153.337 1076.01 128.664 1081.97 118.182C1086.41 110.385 1086.35 100.814 1081.82 93.0738C1077.28 85.3335 1068.96 80.6001 1059.99 80.6563C1051.02 80.7134 1042.76 85.5513 1038.33 93.3483C1030.71 106.679 1020.86 130.85 1011.33 154.269C1005.32 169.015 999.643 182.937 995.952 190.516C989.946 202.985 995.173 217.963 1007.63 223.987Z"
                    fill="#fde900" />
            </g>
            <g id="Path_13" style="mix-blend-mode:soft-light">
                <path
                    d="M802.654 229.505C805.584 240.486 815.531 248.124 826.897 248.122C829.081 248.126 831.257 247.836 833.365 247.262C846.747 243.692 854.704 229.952 851.139 216.568C846.427 198.866 808.137 90.4274 794.68 69.3561C787.171 57.8756 771.832 54.5571 760.248 61.907C748.665 69.2569 745.134 84.5486 752.323 96.2328C760.493 109.151 797.278 209.366 802.654 229.505Z"
                    fill="#fde900" />
            </g>
        </g>
    </g>
</svg>