<svg xmlns="http://www.w3.org/2000/svg"  viewBox="0 0 24 24" width="24px" height="24px"><path d="M21.734,18.025L13.718,4.14C13.364,3.526,12.708,3.148,12,3.148s-1.364,0.378-1.718,0.992	L2.266,18.025c-0.354,0.614-0.354,1.369,0,1.984C2.62,20.622,3.275,21,3.984,21h16.033c0.708,0,1.364-0.378,1.718-0.992	C22.089,19.394,22.089,18.639,21.734,18.025z" opacity=".35"/><path d="M12.405,8c0.701,0.006,1.264,0.579,1.258,1.281c-0.006,0.701-0.579,1.263-1.28,1.258c-0.701-0.006-1.264-0.579-1.258-1.28	C11.13,8.557,11.704,7.993,12.405,8z M11.125,18.354v-1.17l-1.469-0.618l-0.559,1.965C9.018,18.809,8.764,19,8.476,19H8.381	c-0.43,0-0.74-0.412-0.621-0.825l0.821-2.849l3.389,1.344l0.404,0.522l0.041,1.138C12.43,18.696,12.137,19,11.771,19h0	C11.414,19,11.125,18.711,11.125,18.354z M13.809,18.986L13.809,18.986L13.809,18.986l0.839-1.679l0.316-0.316l-7.663-3.366	c-0.226-0.099-0.33-0.362-0.234-0.589v0C7.165,12.807,7.43,12.7,7.66,12.798l0.239,0.1l0.575-1.109l0.119-0.077	c0.421-0.272,1.556-0.373,1.917-0.299l0.088,0.027l1.444,0.583c0.289,0.113,0.511,0.352,0.605,0.652l0.473,2.392l2.608,1.159	l0.838-0.838l1.315,2.325c0.321,0.568-0.089,1.272-0.742,1.272L13.809,18.986L13.809,18.986z"/></svg>