<svg xmlns="http://www.w3.org/2000/svg"  viewBox="0 0 24 24" width="24px" height="24px"><path d="M21.121,9.878l-7-7c-1.172-1.172-3.071-1.172-4.243,0l-7,7	c-1.172,1.172-1.172,3.071,0,4.243l7,7c1.172,1.172,3.071,1.172,4.243,0l7-7C22.293,12.95,22.293,11.05,21.121,9.878z" opacity=".35"/><path d="M17.542,14.948c-0.592,0.619-1.39,0.413-2.128,0.726c-1.446,0.613-2.429-0.389-2.429-0.389s-0.059,1.224-0.731,2.735	c-0.322,0.725-1.285,0.89-1.846,0.329l-2.921-2.921c-0.498-0.498-0.435-1.334,0.144-1.734c1.673-1.158,2.567-2.27,2.567-2.27	s-0.373,0.279-1.095-0.082C8.381,10.98,8.248,9.68,8.403,9.32c0.155-0.309,1.341-0.206,1.908,0.051	c0.516,0.258,1.238,0.929,1.444,1.031c0.066,0.013,0.146-0.018,0.252-0.063c-0.188-0.505-0.268-0.57-0.36-0.685	c-0.063-0.078-0.257-0.279-0.499-0.533C10.403,8.343,9.77,7.668,9.552,7.308C9.304,6.814,9.277,6.17,9.282,5.309	c0.001-0.23,0.191-0.412,0.421-0.407l0,0c0.226,0.005,0.406,0.191,0.405,0.417c0.038,0.635-0.044,1.385,0.773,1.87	c-0.018-0.353-0.006-0.583,0.076-0.928c0.016-0.233,0.223-0.405,0.455-0.38l0,0c0.22,0.023,0.383,0.215,0.368,0.436	c-0.043,0.553-0.266,1.312,0.717,2.329c0.302-0.242,0.429-0.625,0.506-0.967c0.046-0.204,0.266-0.318,0.471-0.277	c0.241,0.048,0.389,0.296,0.315,0.529c-0.155,0.946-0.342,1.299-0.684,1.586c0.133,0.282,0.165,0.276,0.255,0.644	c0.203,0.022,0.5,0.015,0.949,0.203c1.123,0.469,0.994,1.917,2.779,2.592C18.103,13.341,17.895,14.578,17.542,14.948z"/></svg>